Coordinates
version=1
nRows=7
nColumns=40
inDegrees=yes

Units are S.I. units (second, meters, Newtons, ...)
Angles are in degrees.

endheader
time	pelvis_tilt	pelvis_list	pelvis_rotation	pelvis_tx	pelvis_ty	pelvis_tz	hip_flexion_r	hip_adduction_r	hip_rotation_r	knee_angle_r	knee_angle_r_beta	ankle_angle_r	subtalar_angle_r	mtp_angle_r	hip_flexion_l	hip_adduction_l	hip_rotation_l	knee_angle_l	knee_angle_l_beta	ankle_angle_l	subtalar_angle_l	mtp_angle_l	lumbar_extension	lumbar_bending	lumbar_rotation	arm_flex_r	arm_add_r	arm_rot_r	elbow_flex_r	pro_sup_r	wrist_flex_r	wrist_dev_r	arm_flex_l	arm_add_l	arm_rot_l	elbow_flex_l	pro_sup_l	wrist_flex_l	wrist_dev_l
     49.16000000	     -5.67179211	     -5.71139902	     -0.62701110	      1.07118621	      0.91757006	      0.41485895	     16.92249821	     -5.54908710	     -3.06854518	     51.29705340	     51.29705340	      6.41538268	     -6.87719547	     -9.58200618	     23.37564937	     -5.72035365	     -2.24118238	     32.17312074	     32.17312074	     16.53465654	    -15.07391947	      5.34393441	     -9.88295164	      7.62461615	      3.29873387	     12.65639285	    -11.58196072	    -11.39446989	     24.08433482	     45.72799415	      0.00000000	      0.00000000	     20.09679163	    -16.51099078	     10.75130650	     45.13232080	     45.36121623	      0.00000000	      0.00000000
     49.18071429	     -5.34622045	     -5.82121634	     -1.04500599	      1.07006427	      0.91514829	      0.41281811	     18.86239063	     -5.38440524	     -1.56863935	     54.45300556	     54.45300556	      5.96329910	     -8.12076698	     -9.02499753	     23.45990052	     -5.68724250	     -2.04200326	     33.54351456	     33.54351456	     17.21349997	    -16.06969999	      5.29135797	    -10.25425680	      7.91197917	      2.95978547	      9.76528988	    -11.54314272	    -11.33153297	     23.08867608	     45.76450935	      0.00000000	      0.00000000	     22.03361270	    -16.91445279	     10.22902401	     46.28492838	     45.45925931	      0.00000000	      0.00000000
     49.20142857	     -5.04821706	     -5.87892173	     -1.53035411	      1.06891570	      0.91278374	      0.41089059	     20.76764193	     -5.23401960	     -0.18509753	     57.22051393	     57.22051393	      5.54553286	     -9.19189501	     -8.39610138	     23.48973020	     -5.64150934	     -2.00281388	     34.81265956	     34.81265956	     17.92882525	    -16.83018981	      5.21447688	    -10.55452792	      8.12605371	      2.48246324	      6.91475693	    -11.48170148	    -11.35764272	     22.25745057	     45.78907563	      0.00000000	      0.00000000	     23.87770953	    -17.48701802	      9.60294028	     47.48418500	     45.55806768	      0.00000000	      0.00000000
     49.22214286	     -4.71326978	     -6.07197710	     -2.07092334	      1.06767516	      0.91078797	      0.40932354	     22.47069936	     -4.83892101	      1.00042294	     59.40484202	     59.40484202	      5.65540837	    -10.37326816	     -6.58038072	     23.43594785	     -5.78533261	     -2.02107683	     36.02912203	     36.02912203	     18.86940268	    -17.36590281	      5.74697193	    -11.13946248	      8.48518245	      2.52146653	      3.57939340	    -11.57669046	    -11.47655656	     21.87563507	     45.80919757	      0.00000000	      0.00000000	     25.75707714	    -17.77005072	      8.49634819	     49.41115678	     45.71882420	      0.00000000	      0.00000000
     49.24285714	     -4.51095877	     -6.09640622	     -2.66218703	      1.06632920	      0.90909620	      0.40805585	     24.26109565	     -4.70408977	      1.86555188	     61.14554314	     61.14554314	      6.96268033	    -10.55406513	     -2.45837911	     23.40488306	     -5.76363771	     -2.12574616	     37.06372356	     37.06372356	     20.26519575	    -17.65131799	      7.80372350	    -11.50322841	      8.64750559	      1.89278902	      0.25848623	    -11.48883819	    -11.81867957	     23.36017303	     45.82380573	      0.00000000	      0.00000000	     27.13834076	    -18.28962498	      5.92978176	     51.50602474	     46.04730523	      0.00000000	      0.00000000
     49.26357143	     -4.32159176	     -6.21567838	     -3.38314430	      1.06491288	      0.90824209	      0.40731824	     25.70533131	     -4.37663506	      2.49172810	     61.66870969	     61.66870969	      6.83731506	    -11.93483763	     -2.02843729	     23.13812442	     -5.97342236	     -2.54313530	     37.61736448	     37.61736448	     20.75578661	    -17.96079307	      7.83826160	    -11.87763152	      8.89900177	      1.89231006	     -2.23944485	    -11.53965083	    -11.84055976	     22.38404802	     45.86196796	      0.00000000	      0.00000000	     28.84424407	    -18.72760486	      5.20293414	     52.76361580	     46.15004898	      0.00000000	      0.00000000
     49.28428571	     -4.26871054	     -6.29222764	     -4.17976807	      1.06338280	      0.90803369	      0.40714012	     27.04976584	     -4.07314100	      2.84358240	     61.31118293	     61.31118293	      6.97521232	    -13.10100687	     -1.75144275	     22.80445355	     -6.19297633	     -3.05187470	     37.78399489	     37.78399489	     21.16666808	    -18.16402941	      8.05159947	    -12.12573316	      9.04471817	      1.82916309	     -4.50615050	    -11.48223947	    -11.95331811	     21.78159864	     45.89126001	      0.00000000	      0.00000000	     30.42527643	    -19.23961146	      4.25576057	     54.16765626	     46.26897271	      0.00000000	      0.00000000
